<svg width="147" height="25" viewBox="0 0 147 25" fill="none" xmlns="http://www.w3.org/2000/svg">
<g clip-path="url(#clip0_362_3)">
<path d="M11.9006 17.3928C12.4104 17.403 12.9152 17.3826 13.4149 17.3316C13.9146 17.2806 14.3633 17.1123 14.761 16.8268C15.1587 16.5311 15.48 16.0824 15.7247 15.4807C15.9796 14.879 16.1071 14.0377 16.1071 12.9568C16.1071 11.8758 15.9847 10.9886 15.74 10.2951C15.4953 9.60166 15.174 9.05098 14.7763 8.64307C14.3786 8.23517 13.9299 7.95473 13.4302 7.80176C12.9305 7.6488 12.4206 7.57742 11.9006 7.58762V17.3928ZM1.1012 1.91257L10.8604 1.48427C12.696 1.40268 14.3378 1.39759 15.7859 1.46897C17.234 1.54035 18.5087 1.72901 19.61 2.03494C20.7216 2.34088 21.6649 2.78448 22.4399 3.36575C23.2251 3.93682 23.8625 4.68636 24.352 5.61436C24.8415 6.54235 25.1984 7.66409 25.4227 8.9796C25.6573 10.2951 25.7746 11.8401 25.7746 13.6145C25.7746 15.4603 25.6216 17.0053 25.3157 18.2494C25.0199 19.4833 24.5101 20.4878 23.786 21.2628C23.062 22.0276 22.0983 22.6089 20.895 23.0066C19.6916 23.3941 18.1875 23.6644 16.3825 23.8173C15.893 23.8581 15.3627 23.8938 14.7916 23.9244C14.2307 23.955 13.6495 23.9805 13.0478 24.0009C12.4461 24.0315 11.8394 24.0519 11.2275 24.0621C10.6258 24.0723 10.0344 24.0774 9.45314 24.0774C7.29122 24.0774 5.51171 23.9958 4.11463 23.8326C2.71754 23.6695 1.63148 23.4145 0.856445 23.0678L1.1012 1.91257ZM41.3233 24.0009C39.2837 24.0009 37.5144 23.955 36.0153 23.8632C34.5163 23.7715 33.2416 23.593 32.1912 23.3278C31.1408 23.0627 30.2842 22.6956 29.6214 22.2265C28.9687 21.7472 28.4537 21.1302 28.0764 20.3756C27.7093 19.6108 27.4594 18.6828 27.3269 17.5916C27.1943 16.5005 27.128 15.2105 27.128 13.7216C27.128 12.9262 27.1433 12.1256 27.1739 11.32C27.2045 10.5042 27.2453 9.70874 27.2963 8.93371C27.3575 8.15868 27.4288 7.41425 27.5104 6.70041C27.6022 5.98657 27.7042 5.33391 27.8164 4.74244C27.9387 4.14078 28.0713 3.61049 28.2141 3.1516C28.367 2.6927 28.5353 2.33068 28.7189 2.06554H40.3902C40.2372 2.75898 40.1046 3.54421 39.9925 4.42121C39.8803 5.28802 39.7834 6.15483 39.7018 7.02164C39.6304 7.88844 39.5743 8.71447 39.5336 9.49969C39.4928 10.2748 39.4724 10.9172 39.4724 11.4271C39.4724 12.2633 39.503 12.9466 39.5641 13.4768C39.6355 14.0071 39.7528 14.4252 39.916 14.7312C40.0893 15.0371 40.3137 15.2461 40.589 15.3583C40.8644 15.4705 41.2111 15.5266 41.6292 15.5266C42.0065 15.5266 42.3073 15.4654 42.5317 15.343C42.7662 15.2105 42.9447 15.0014 43.0671 14.7159C43.1996 14.4303 43.2863 14.053 43.3271 13.5839C43.3781 13.1148 43.4036 12.5437 43.4036 11.8707C43.4036 11.4526 43.373 10.9631 43.3118 10.4022C43.2608 9.83112 43.1945 9.22945 43.113 8.59719C43.0416 7.96494 42.9549 7.32248 42.8529 6.66982C42.7611 6.01717 42.6745 5.3951 42.5929 4.80363C42.5215 4.21216 42.4552 3.67678 42.394 3.19749C42.343 2.71819 42.3175 2.34088 42.3175 2.06554H54.3254C54.4579 2.39186 54.5803 2.82017 54.6925 3.35045C54.8047 3.88073 54.9015 4.4722 54.9831 5.12486C55.0749 5.76731 55.1565 6.45567 55.2279 7.18991C55.2992 7.91395 55.3553 8.64818 55.3961 9.39262C55.4471 10.1269 55.4828 10.8458 55.5032 11.5495C55.5236 12.2531 55.5338 12.9007 55.5338 13.4921C55.5338 15.0014 55.442 16.3067 55.2585 17.4081C55.0749 18.5094 54.769 19.4527 54.3407 20.2379C53.9124 21.013 53.3413 21.6452 52.6274 22.1347C51.9238 22.6242 51.0468 23.0066 49.9964 23.282C48.9461 23.5573 47.7019 23.746 46.2641 23.8479C44.8364 23.9499 43.1894 24.0009 41.3233 24.0009ZM67.9467 10.1881C68.4566 10.1983 68.9257 10.1626 69.354 10.081C69.7925 9.98919 70.1647 9.86171 70.4706 9.69855C70.7868 9.53539 71.0315 9.34673 71.2049 9.13258C71.3884 8.90823 71.4802 8.67367 71.4802 8.42892C71.4802 8.21477 71.3935 8.01082 71.2202 7.81706C71.0468 7.6131 70.8071 7.43975 70.5012 7.29698C70.1953 7.14402 69.8282 7.02674 69.3999 6.94516C68.9716 6.85338 68.4974 6.81258 67.9773 6.82278L67.9467 10.1881ZM57.3614 1.56075C59.3908 1.3466 61.2009 1.18853 62.7917 1.08655C64.3928 0.984583 65.8103 0.933594 67.0442 0.933594C68.7574 0.933594 70.282 0.964187 71.6179 1.02537C72.9538 1.07636 74.1265 1.17833 75.1361 1.3313C76.1457 1.48427 76.9972 1.69332 77.6906 1.95846C78.3943 2.2236 78.9653 2.57032 79.4038 2.99863C79.8423 3.41674 80.1585 3.92662 80.3522 4.52829C80.5562 5.11976 80.6582 5.82341 80.6582 6.63923C80.6582 7.03694 80.5919 7.43974 80.4593 7.84765C80.3369 8.25556 80.1381 8.64307 79.8627 9.01019C79.5874 9.37731 79.2305 9.70875 78.792 10.0045C78.3535 10.29 77.8283 10.5093 77.2164 10.6623C78.0628 10.7948 78.7512 11.0549 79.2815 11.4424C79.8117 11.8299 80.2248 12.3041 80.5205 12.865C80.8162 13.4259 81.0202 14.053 81.1324 14.7465C81.2445 15.4399 81.3006 16.1537 81.3006 16.888C81.3006 18.0199 81.1884 19.004 80.9641 19.8402C80.7397 20.6764 80.3114 21.3852 79.6792 21.9665C79.0469 22.5477 78.1648 23.0168 77.0329 23.3737C75.9111 23.7205 74.4477 23.9703 72.6427 24.1233C72.1532 24.1641 71.623 24.1998 71.0519 24.2303C70.491 24.2609 69.9097 24.2864 69.3081 24.3068C68.7064 24.3374 68.0996 24.3578 67.4878 24.368C66.8861 24.3782 66.2946 24.3833 65.7134 24.3833C63.5515 24.3833 61.772 24.3017 60.3749 24.1386C58.9778 23.9754 57.8917 23.7205 57.1167 23.3737L57.3614 1.56075ZM68.1608 17.3928C68.6605 17.4336 69.1296 17.4285 69.5681 17.3775C70.0168 17.3265 70.4043 17.2347 70.7307 17.1021C71.0672 16.9696 71.3323 16.8013 71.5261 16.5973C71.7198 16.3934 71.8167 16.1639 71.8167 15.909C71.8167 15.5725 71.7147 15.292 71.5108 15.0677C71.3068 14.8433 71.0315 14.6802 70.6848 14.5782C70.3482 14.466 69.9607 14.4099 69.5222 14.4099C69.0837 14.4099 68.6299 14.4558 68.1608 14.5476V17.3928ZM93.224 10.1881C93.7339 10.1983 94.203 10.1626 94.6313 10.081C95.0698 9.98919 95.442 9.86171 95.7479 9.69855C96.0641 9.53539 96.3088 9.34673 96.4822 9.13258C96.6657 8.90823 96.7575 8.67367 96.7575 8.42892C96.7575 8.21477 96.6708 8.01082 96.4975 7.81706C96.3241 7.6131 96.0845 7.43975 95.7785 7.29698C95.4726 7.14402 95.1055 7.02674 94.6772 6.94516C94.2489 6.85338 93.7747 6.81258 93.2546 6.82278L93.224 10.1881ZM82.6388 1.56075C84.6681 1.3466 86.4782 1.18853 88.069 1.08655C89.6701 0.984583 91.0876 0.933594 92.3215 0.933594C94.0347 0.933594 95.5593 0.964187 96.8952 1.02537C98.2311 1.07636 99.4038 1.17833 100.414 1.3313C101.423 1.48427 102.275 1.69332 102.968 1.95846C103.672 2.2236 104.243 2.57032 104.681 2.99863C105.12 3.41674 105.436 3.92662 105.63 4.52829C105.834 5.11976 105.936 5.82341 105.936 6.63923C105.936 7.03694 105.869 7.43974 105.737 7.84765C105.614 8.25556 105.416 8.64307 105.14 9.01019C104.865 9.37731 104.508 9.70875 104.069 10.0045C103.631 10.29 103.106 10.5093 102.494 10.6623C103.34 10.7948 104.029 11.0549 104.559 11.4424C105.089 11.8299 105.502 12.3041 105.798 12.865C106.094 13.4259 106.298 14.053 106.41 14.7465C106.522 15.4399 106.578 16.1537 106.578 16.888C106.578 18.0199 106.466 19.004 106.242 19.8402C106.017 20.6764 105.589 21.3852 104.957 21.9665C104.324 22.5477 103.442 23.0168 102.31 23.3737C101.189 23.7205 99.7251 23.9703 97.9201 24.1233C97.4306 24.1641 96.9003 24.1998 96.3292 24.2303C95.7683 24.2609 95.1871 24.2864 94.5854 24.3068C93.9837 24.3374 93.377 24.3578 92.7651 24.368C92.1634 24.3782 91.572 24.3833 90.9907 24.3833C88.8288 24.3833 87.0493 24.3017 85.6522 24.1386C84.2551 23.9754 83.169 23.7205 82.394 23.3737L82.6388 1.56075ZM93.4382 17.3928C93.9378 17.4336 94.4069 17.4285 94.8454 17.3775C95.2941 17.3265 95.6817 17.2347 96.008 17.1021C96.3445 16.9696 96.6097 16.8013 96.8034 16.5973C96.9972 16.3934 97.094 16.1639 97.094 15.909C97.094 15.5725 96.9921 15.292 96.7881 15.0677C96.5842 14.8433 96.3088 14.6802 95.9621 14.5782C95.6256 14.466 95.2381 14.4099 94.7996 14.4099C94.3611 14.4099 93.9073 14.4558 93.4382 14.5476V17.3928ZM108.268 24.0009C108.207 23.5726 108.156 23.0423 108.115 22.4101C108.074 21.7676 108.044 21.0742 108.023 20.3297C108.013 19.5853 108.008 18.8154 108.008 18.0199C108.008 17.2245 108.008 16.4597 108.008 15.7254C108.018 14.9912 108.028 14.3131 108.039 13.691C108.049 13.0689 108.054 12.559 108.054 12.1613C108.054 11.8452 108.059 11.4475 108.069 10.9682C108.079 10.4889 108.095 9.95858 108.115 9.37731C108.136 8.78584 108.156 8.16379 108.176 7.51114C108.207 6.85848 108.232 6.21092 108.253 5.56846C108.283 4.9158 108.314 4.28864 108.345 3.68698C108.375 3.07511 108.406 2.51934 108.436 2.01965L120.735 2.06554C120.816 2.56523 120.888 3.1261 120.949 3.74816C121.01 4.36003 121.056 4.99739 121.087 5.66024C121.127 6.32309 121.158 6.99614 121.178 7.67939C121.199 8.36264 121.214 9.0255 121.224 9.66796C121.235 10.3104 121.24 10.9223 121.24 11.5036C121.24 12.0747 121.24 12.5845 121.24 13.0332C121.24 13.8389 121.235 14.721 121.224 15.6796C121.224 16.6381 121.214 17.6069 121.194 18.5859C121.173 19.5649 121.138 20.5235 121.087 21.4617C121.036 22.3897 120.964 23.2361 120.873 24.0009H108.268ZM135.228 24.3221C133.688 24.3221 132.337 24.2966 131.174 24.2456C130.012 24.2049 129.007 24.1131 128.161 23.9703C127.325 23.8173 126.626 23.6032 126.065 23.3278C125.505 23.0423 125.056 22.6701 124.719 22.2112C124.393 21.7421 124.164 21.1659 124.031 20.4827C123.898 19.7994 123.832 18.9836 123.832 18.0352C123.832 17.25 123.929 16.5922 124.123 16.062C124.316 15.5317 124.592 15.083 124.949 14.7159C125.306 14.3385 125.729 14.0224 126.218 13.7675C126.718 13.5023 127.264 13.2525 127.855 13.0179C127.417 12.967 126.983 12.9058 126.555 12.8344C126.127 12.763 125.719 12.661 125.331 12.5285C124.954 12.3959 124.602 12.2174 124.276 11.9931C123.96 11.7585 123.684 11.4628 123.45 11.1059C123.225 10.7387 123.047 10.29 122.914 9.75974C122.782 9.21926 122.715 8.57679 122.715 7.83235C122.715 6.83298 122.756 5.98147 122.838 5.27782C122.93 4.57418 123.113 3.98271 123.388 3.50342C123.664 3.02412 124.062 2.64681 124.582 2.37147C125.102 2.08593 125.795 1.87178 126.662 1.72901C127.539 1.57605 128.615 1.47917 129.89 1.43838C131.174 1.39759 132.709 1.37719 134.494 1.37719C135.065 1.37719 135.687 1.39249 136.36 1.42308C137.043 1.45367 137.742 1.49446 138.456 1.54545C139.169 1.59644 139.878 1.65763 140.582 1.72901C141.286 1.7902 141.943 1.85648 142.555 1.92787C143.167 1.99925 143.718 2.07573 144.207 2.15732C144.697 2.2287 145.079 2.30009 145.354 2.37147L145.048 9.23965C144.783 9.17847 144.391 9.11727 143.871 9.05608C143.361 8.9847 142.785 8.91332 142.142 8.84194C141.5 8.77056 140.827 8.70426 140.123 8.64307C139.419 8.57169 138.746 8.51051 138.104 8.45953C137.461 8.39834 136.88 8.35244 136.36 8.32185C135.84 8.29125 135.442 8.27596 135.167 8.27596C134.718 8.27596 134.387 8.34225 134.173 8.47482C133.958 8.59719 133.851 8.75525 133.851 8.94901C133.851 9.16316 133.974 9.35183 134.218 9.51499C134.473 9.67815 134.835 9.75974 135.305 9.75974C135.661 9.75974 136.039 9.76993 136.436 9.79033C136.834 9.81073 137.237 9.83111 137.645 9.85151C138.053 9.8719 138.456 9.8872 138.853 9.8974C139.251 9.90759 139.633 9.90759 140.001 9.8974L140.475 13.9969C140.159 14.0275 139.822 14.0734 139.465 14.1346C139.108 14.1958 138.751 14.257 138.394 14.3182C138.048 14.3691 137.711 14.4201 137.385 14.4711C137.069 14.5119 136.793 14.5323 136.559 14.5323C136.253 14.5323 136.008 14.5986 135.825 14.7312C135.651 14.8637 135.565 15.032 135.565 15.2359C135.565 15.3991 135.738 15.5164 136.085 15.5878C136.431 15.649 136.88 15.6745 137.431 15.6643C137.992 15.6541 138.619 15.6133 139.312 15.5419C140.016 15.4603 140.725 15.3685 141.438 15.2665C142.152 15.1544 142.841 15.0371 143.504 14.9147C144.166 14.7821 144.732 14.6547 145.201 14.5323L146.196 23.2208C145.727 23.4145 145.181 23.5828 144.559 23.7256C143.947 23.8581 143.208 23.9703 142.341 24.0621C141.484 24.1539 140.475 24.2202 139.312 24.2609C138.15 24.3017 136.788 24.3221 135.228 24.3221Z" fill="black"/>
</g>
<defs>
<clipPath id="clip0_362_3">
<rect width="147" height="25" fill="white"/>
</clipPath>
</defs>
</svg>
